#!OML:ASF F:\VICON\USERDATA\INSTALL\rory3\rory3.ASF
:FULLY-SPECIFIED
:DEGREES
116
root 8.71627 17.6428 -7.9177 197.439 85.1217 201.73
lowerback 12.2974 -0.542125 -3.34594
upperback 1.30072 -1.00291 1.79862
thorax -5.43908 -0.374367 3.95208
lowerneck -7.97906 -11.994 -14.7447
upperneck 31.1625 -17.8457 13.6805
head 14.8568 -7.65357 5.23792
rclavicle 1.92573e-014 -1.04362e-015
rhumerus -42.4277 -32.6595 -65.3575
rradius 24.2383
rwrist 15.8653
rhand -25.1536 6.7211
rfingers 7.12502
rthumb 1.36319 -23.2543
lclavicle 1.92573e-014 -1.04362e-015
lhumerus -32.9669 8.32845 78.3866
lradius 30.0104
lwrist -5.19096
lhand -19.4762 26.7409
lfingers 7.12502
lthumb 6.84551 56.6102
rfemur -5.01077 4.79351 1.54587
rtibia 27.1736
rfoot 0.371276 -11.5137
rtoes 29.6358
lfemur -0.274103 -8.07634 -12.2483
ltibia 23.6518
lfoot -16.9545 -3.39856
ltoes -15.6283
117
root 8.73618 17.6224 -7.81916 197.04 85.1415 201.445
lowerback 12.3089 -0.571707 -3.50472
upperback 1.38338 -1.05804 1.84748
thorax -5.34904 -0.400091 4.10201
lowerneck -8.08243 -11.9323 -14.7594
upperneck 31.0873 -17.7205 13.6269
head 14.8132 -7.60827 5.23326
rclavicle 6.03187e-015 6.26172e-015
rhumerus -42.1329 -32.5142 -65.492
rradius 24.1094
rwrist 15.8697
rhand -25.5013 6.41317
rfingers 7.12502
rthumb 1.02741 -23.5641
lclavicle 6.03187e-015 6.26172e-015
lhumerus -32.9526 8.80278 78.156
lradius 29.956
lwrist -5.35117
lhand -19.355 26.7473
lfingers 7.12502
lthumb 6.96247 56.6128
rfemur -4.60469 5.00346 1.2799
rtibia 26.8787
rfoot 0.658744 -10.5974
rtoes 28.3284
lfemur -0.171692 -8.10599 -11.9334
ltibia 23.7707
lfoot -17.1173 -3.19081
ltoes -16.7339
118
root 8.75794 17.6049 -7.71957 197.895 85.1236 202.488
lowerback 12.5175 -0.513267 -3.35777
upperback 1.38603 -0.966919 1.81451
thorax -5.47403 -0.354997 3.97344
lowerneck -8.03416 -11.9638 -14.7493
upperneck 31.0583 -17.7654 13.6087
head 14.794 -7.63109 5.21539
rclavicle 7.75881e-015 -1.00883e-014
rhumerus -42.105 -32.3027 -65.5833
rradius 24.0162
rwrist 15.3924
rhand -25.5642 6.26232
rfingers 7.12502
rthumb 0.966643 -23.7152
lclavicle 7.75881e-015 -1.00883e-014
lhumerus -33.0513 8.51815 78.0907
lradius 29.9993
lwrist -5.12644
lhand -19.3822 26.799
lfingers 7.12502
lthumb 6.93617 56.6653
rfemur -4.12593 5.33287 1.23027
rtibia 26.6236
rfoot 1.06818 -9.63959
rtoes 26.2441
lfemur 0.00939425 -8.30327 -11.5065
ltibia 23.9155
lfoot -17.2365 -3.13623
ltoes -16.3678
119
root 8.77398 17.5842 -7.62113 200.962 85.1606 205.649
lowerback 12.6562 -0.403654 -3.14693
upperback 1.35709 -0.790717 1.88796
thorax -5.60001 -0.268329 3.90531
lowerneck -8.01273 -12.0236 -14.7644
upperneck 31.0582 -17.8362 13.5559
head 14.7982 -7.66913 5.18116
rclavicle 4.26766e-015 2.48481e-015
rhumerus -42.1207 -32.2055 -65.4985
rradius 24.003
rwrist 15.1301
rhand -25.8049 6.18135
rfingers 7.12502
rthumb 0.734133 -23.7971
lclavicle 4.26766e-015 2.48481e-015
lhumerus -33.1648 8.28595 78.1237
lradius 30.0618
lwrist -4.9199
lhand -19.5351 26.9301
lfingers 7.12502
lthumb 6.78862 56.8013
rfemur -3.84754 5.57864 1.34717
rtibia 26.3946
rfoot 1.68493 -8.43956
rtoes 23.2481
lfemur 0.0924836 -8.42551 -10.9188
ltibia 24.0641
lfoot -17.3237 -2.80274
ltoes -17.7554
120
root 8.78806 17.559 -7.5203 202.267 85.2924 207.012
lowerback 12.7428 -0.337333 -3.13195
upperback 1.35651 -0.69931 1.93113
thorax -5.65666 -0.221555 3.92886
lowerneck -8.06759 -12.0349 -14.9064
upperneck 31.0426 -17.8383 13.6079
head 14.8289 -7.67957 5.22178
rclavicle -1.59028e-015 8.44835e-016
rhumerus -42.0765 -32.1725 -65.4276
rradius 24.0678
rwrist 15.3611
rhand -26.0615 6.12377
rfingers 7.12502
rthumb 0.486333 -23.8554
lclavicle -1.59028e-015 8.44835e-016
lhumerus -33.2412 8.46539 78.007
lradius 30.0865
lwrist -4.98561
lhand -19.8209 27.0209
lfingers 7.12502
lthumb 6.51267 56.9008
rfemur -3.63767 5.76101 1.21331
rtibia 26.1857
rfoot 2.08686 -7.11325
rtoes 21.0003
lfemur 0.123346 -8.49238 -10.5313
ltibia 24.2547
lfoot -17.4207 -2.37576
ltoes -19.4409
121
root 8.80805 17.5328 -7.41168 203.519 85.4097 208.36
lowerback 12.7389 -0.302677 -3.03539
upperback 1.43059 -0.643579 1.83984
thorax -5.5832 -0.199521 3.76611
lowerneck -8.16102 -12.0285 -14.851
upperneck 30.992 -17.8685 13.7255
head 14.8416 -7.67114 5.2499
rclavicle 2.02574e-014 1.59028e-015
rhumerus -41.8864 -32.1832 -65.6781
rradius 24.0688
rwrist 15.4922
rhand -26.1985 6.02274
rfingers 7.12502
rthumb 0.353993 -23.9567
lclavicle 2.02574e-014 1.59028e-015
lhumerus -33.1044 8.86724 77.5573
lradius 29.914
lwrist -5.36805
lhand -19.9572 27.3725
lfingers 7.12502
lthumb 6.38116 57.2563
rfemur -3.32196 6.04146 1.14508
rtibia 26.0018
rfoot 2.00451 -6.24646
rtoes 18.4384
lfemur 0.175552 -8.40845 -10.0977
ltibia 24.4995
lfoot -17.548 -2.08968
ltoes -21.0039
122
root 8.82802 17.5073 -7.29723 204.344 85.5106 209.187
lowerback 12.6487 -0.257608 -2.90493
upperback 1.459 -0.577242 1.63059
thorax -5.51235 -0.174463 3.45676
lowerneck -8.14889 -12.0112 -14.589
upperneck 30.9316 -17.9179 13.8109
head 14.7991 -7.65432 5.23268
rclavicle 1.66482e-015 -5.01931e-015
rhumerus -41.8179 -32.4352 -65.9725
rradius 24.0872
rwrist 15.6174
rhand -26.2414 6.06925
rfingers 7.12502
rthumb 0.312612 -23.9103
lclavicle 1.66482e-015 -5.01931e-015
lhumerus -32.8746 9.32222 76.8866
lradius 29.5982
lwrist -5.76808
lhand -19.7986 27.4733
lfingers 7.12502
lthumb 6.53424 57.3525
rfemur -3.07367 6.38882 1.13008
rtibia 25.8974
rfoot 1.32472 -5.88549
rtoes 14.0202
lfemur 0.138839 -8.31555 -9.64503
ltibia 24.7304
lfoot -17.6919 -2.04349
ltoes -21.6498
123
root 8.84579 17.4845 -7.18113 204.145 85.726 208.946
lowerback 12.5603 -0.177323 -2.9769
upperback 1.45596 -0.48943 1.47994
thorax -5.47428 -0.132828 3.322
lowerneck -8.11478 -11.9782 -14.5623
upperneck 30.8437 -17.906 13.9233
head 14.7599 -7.63875 5.27695
rclavicle 5.20878e-015 -1.49089e-015
rhumerus -41.7137 -32.5505 -66.1988
rradius 24.1909
rwrist 15.4794
rhand -26.225 6.24765
rfingers 7.12502
rthumb 0.328458 -23.7318
lclavicle 5.20878e-015 -1.49089e-015
lhumerus -32.7544 9.75332 76.3981
lradius 29.3598
lwrist -6.09535
lhand -19.9373 27.3495
lfingers 7.12502
lthumb 6.40037 57.2328
rfemur -2.90455 6.72478 1.03814
rtibia 25.8312
rfoot 0.228157 -5.59803
rtoes 6.73067
lfemur 0.0912119 -8.45684 -9.34857
ltibia 24.9571
lfoot -17.7228 -2.05202
ltoes -20.8449
124
root 8.86575 17.4639 -7.06389 203.332 86.0349 207.901
lowerback 12.3054 -0.0633609 -3.31047
upperback 1.36505 -0.383377 1.46219
thorax -5.43496 -0.0752556 3.4724
lowerneck -8.10239 -11.9707 -14.6649
upperneck 30.8584 -17.8488 13.8322
head 14.7526 -7.63766 5.26691
rclavicle 6.19649e-015 -6.80837e-015
rhumerus -41.4951 -32.3047 -66.3633
rradius 24.3424
rwrist 14.9765
rhand -26.212 5.99121
rfingers 7.12502
rthumb 0.340989 -23.9883
lclavicle 6.19649e-015 -6.80837e-015
lhumerus -32.8376 9.91068 76.2352
lradius 29.3139
lwrist -6.01366
lhand -20.1207 27.315
lfingers 7.12502
lthumb 6.22326 57.2036
rfemur -2.99439 6.83557 0.849577
rtibia 25.785
rfoot -0.863622 -4.95748
rtoes -2.49608
lfemur -0.12756 -8.81711 -9.1891
ltibia 25.219
lfoot -17.7192 -1.63519
ltoes -21.5035
125
root 8.88182 17.4377 -6.9471 204.307 86.2389 208.517
lowerback 11.9481 -0.00158591 -3.57503
upperback 1.24214 -0.326602 1.55837
thorax -5.36881 -0.0424603 3.71177
lowerneck -8.14912 -11.9437 -14.7035
upperneck 30.923 -17.7343 13.6191
head 14.7454 -7.61398 5.20522
rclavicle -8.82573e-015 -9.74045e-015
rhumerus -41.1222 -31.7616 -66.5845
rradius 24.4165
rwrist 14.6414
rhand -26.2951 5.68963
rfingers 7.12502
rthumb 0.26074 -24.29
lclavicle -8.82573e-015 -9.74045e-015
lhumerus -33.06 9.61852 76.3203
lradius 29.6084
lwrist -5.20832
lhand -20.2507 27.4822
lfingers 7.12502
lthumb 6.09775 57.3745
rfemur -3.23179 6.96777 0.815278
rtibia 25.7523
rfoot -1.92722 -4.43517
rtoes -6.84545
lfemur -0.50791 -9.23167 -8.84285
ltibia 25.4529
lfoot -17.6671 -0.949357
ltoes -23.6677
126
root 8.89417 17.4034 -6.83151 206.737 86.3349 210.844
lowerback 11.8684 0.0170775 -3.57628
upperback 1.20107 -0.297767 1.61631
thorax -5.37012 -0.0274921 3.76852
lowerneck -8.23179 -11.8841 -14.6666
upperneck 30.9634 -17.6062 13.4862
head 14.7341 -7.56579 5.16617
rclavicle -3.66665e-015 1.16786e-015
rhumerus -40.8034 -31.4587 -66.81
rradius 24.46
rwrist 14.77
rhand -26.4207 5.7466
rfingers 7.12502
rthumb 0.139417 -24.2331
lclavicle -3.66665e-015 1.16786e-015
lhumerus -33.2194 9.0143 76.3823
lradius 29.9906
lwrist -4.08178
lhand -20.1214 27.8433
lfingers 7.12502
lthumb 6.22257 57.7319
rfemur -3.22255 6.94732 0.970312
rtibia 25.75
rfoot -2.98908 -3.71858
rtoes -7.4751
lfemur -0.613364 -9.51798 -8.30962
ltibia 25.6044
lfoot -17.7153 -0.628735
ltoes -24.427
